<?xml version="1.0" encoding="UTF-8" standalone="no"?> <!-- Creator: CorelDRAW X8 --> <svg xmlns:dc="http://purl.org/dc/elements/1.1/" xmlns:cc="http://creativecommons.org/ns#" xmlns:rdf="http://www.w3.org/1999/02/22-rdf-syntax-ns#" xmlns:svg="http://www.w3.org/2000/svg" xmlns="http://www.w3.org/2000/svg" xmlns:sodipodi="http://sodipodi.sourceforge.net/DTD/sodipodi-0.dtd" xmlns:inkscape="http://www.inkscape.org/namespaces/inkscape" xml:space="preserve" width="250" height="52.168022" style="clip-rule:evenodd;fill-rule:evenodd;image-rendering:optimizeQuality;shape-rendering:geometricPrecision;text-rendering:geometricPrecision" viewBox="0 0 81.854481 17.093352" id="svg31" sodipodi:docname="daikin_vertikal.svg" inkscape:version="0.92.3 (2405546, 2018-03-11)"><metadata id="metadata35"></metadata> <defs id="defs4"> <style type="text/css" id="style2"> <![CDATA[ .fil1 {fill:#2B2A29;fill-rule:nonzero} .fil0 {fill:#5FC6F1;fill-rule:nonzero} .fil2 {fill:#0097DB;fill-rule:nonzero} ]]> </style> </defs> <g id="__x0023_Layer_x0020_1" transform="matrix(0.22199158,0,0,0.22199158,-0.13617021,0)"> <metadata id="CorelCorpID_0Corel-Layer"></metadata> <g id="_2133257468064"> <g id="g11"> <polygon class="fil0" points="83,0 0,77 0,0 45,0 " id="polygon7" style="fill:#5fc6f1;fill-rule:nonzero"></polygon> <polygon class="fil1" points="42,0 0,0 0,39 " id="polygon9" style="fill:#2b2a29;fill-rule:nonzero"></polygon> </g> <g id="g27"> <g id="g25"> <polygon class="fil2" points="280,61 290,17 310,17 299,61 " id="polygon13" style="fill:#0097db;fill-rule:nonzero"></polygon> <polygon class="fil2" points="252,61 273,61 258,38 282,17 262,17 246,30 249,17 231,17 221,61 239,61 242,47 " id="polygon15" style="fill:#0097db;fill-rule:nonzero"></polygon> <polygon class="fil2" points="210,61 190,61 201,17 221,17 " id="polygon17" style="fill:#0097db;fill-rule:nonzero"></polygon> <polygon class="fil2" points="336,61 358,61 369,17 355,17 349,41 340,17 319,17 309,61 322,61 328,36 " id="polygon19" style="fill:#0097db;fill-rule:nonzero"></polygon> <path class="fil2" d="M 72,61 83,17 h 30 c 0,0 20,1 18,22 0,0 -1,18 -23,22 z m 30,-11 v 0 c 0,0 9,0 11,-10 0,0 1,-8 -2,-11 0,0 -1,-1 -4,-1 h -8 l -5,22 z" id="path21" inkscape:connector-curvature="0" style="fill:#0097db;fill-rule:nonzero"></path> <path class="fil2" d="m 148,52 -6,9 h -13 l 25,-44 h 22 l 8,44 h -19 l -2,-9 z m 13,-10 v 0 l -2,-11 -6,11 z" id="path23" inkscape:connector-curvature="0" style="fill:#0097db;fill-rule:nonzero"></path> </g> </g> </g> </g> </svg> 