<?xml version="1.0" encoding="utf-8"?>
<!-- Generator: Adobe Illustrator 26.3.1, SVG Export Plug-In . SVG Version: 6.00 Build 0)  -->
<svg version="1.1" xmlns="http://www.w3.org/2000/svg" xmlns:xlink="http://www.w3.org/1999/xlink" x="0px" y="0px"
	 viewBox="0 0 957 317" enable-background="new 0 0 957 317" xml:space="preserve">
<g id="Layer_4">
</g>
<g id="Layer_3">
</g>
<g id="Layer_2">
</g>
<g id="Layer_1">
	<g>
		<circle fill="#EAD945" cx="183.54" cy="225.87" r="20.04"/>
		<path fill="#0097DB" d="M271,47.6V63c-21.47-1.52-90.1-2.61-124.42,40.91C146.58,103.91,154.29,43.18,271,47.6z"/>
		<path fill="#0097DB" d="M271,77.6V93c-21.37-1.52-90.14-2.67-124.5,40.91C146.5,133.91,154.22,73.15,271,77.6z"/>
		<path fill="#0097DB" d="M271,107.6V123c-21.37-1.52-90.14-2.67-124.5,40.91C146.5,163.91,154.22,103.15,271,107.6z"/>
		<path fill="#0097DB" d="M271,137.6V153c-21.37-1.52-90.14-2.67-124.5,40.91C146.5,193.91,154.22,133.15,271,137.6z"/>
		<path fill="#0097DB" d="M271,167.6V183c-21.37-1.52-90.14-2.67-124.5,40.91C146.5,223.91,154.22,163.15,271,167.6z"/>
		<path fill="#0097DB" d="M271.26,197.55c-20.81,54.26-83.04,88.15-147.77,62.79C96.82,249.89,75.6,228.67,65.15,202
			C34.03,122.57,92.13,46.91,167.58,46.91v14c-66.04,0-116.88,66.34-89.38,135.88c9.12,23.05,27.45,41.38,50.5,50.5
			c54.68,21.62,107.38-5.19,127.4-49.74H271.26z"/>
		<g>
			<g>
				<path fill="#0097DB" d="M333.9,215.94h13.28v52.92H333.9v-5.59c-2.59,2.46-5.19,4.24-7.8,5.33c-2.61,1.09-5.43,1.63-8.48,1.63
					c-6.83,0-12.75-2.65-17.73-7.95c-4.99-5.3-7.48-11.89-7.48-19.77c0-8.17,2.41-14.87,7.24-20.09c4.83-5.22,10.69-7.83,17.59-7.83
					c3.17,0,6.15,0.6,8.94,1.8c2.79,1.2,5.36,3,7.73,5.4V215.94z M319.94,226.84c-4.11,0-7.51,1.45-10.23,4.35
					c-2.71,2.9-4.07,6.62-4.07,11.16c0,4.57,1.38,8.33,4.14,11.29c2.76,2.95,6.17,4.43,10.21,4.43c4.17,0,7.63-1.45,10.37-4.35
					s4.12-6.7,4.12-11.41c0-4.6-1.37-8.33-4.12-11.19S324.14,226.84,319.94,226.84z"/>
				<path fill="#0097DB" d="M360.6,268.86v-52.92h21.26c6.97,0,11.71,1.37,14.2,4.11c2.5,2.74,3.75,5.85,3.75,9.32
					c0,5.16-2.56,8.87-7.68,11.14c7,2.4,10.51,6.92,10.51,13.57c0,3.6-0.92,6.58-2.77,8.93c-1.85,2.35-4.19,3.92-7.03,4.69
					c-2.84,0.78-6.8,1.17-11.89,1.17H360.6z M373.88,236.76h5.13c2.18,0,3.87-0.54,5.06-1.63c1.19-1.09,1.78-2.29,1.78-3.62
					c0-1.98-0.57-3.52-1.71-4.62c-1.14-1.1-2.49-1.65-4.05-1.65l-1.71,0.05h-4.49V236.76z M373.88,258.65h6.69
					c2.6,0,4.43-0.61,5.49-1.82c1.06-1.22,1.59-2.41,1.59-3.58c0-1.72-0.59-3.29-1.78-4.72c-1.19-1.43-3.33-2.14-6.42-2.14h-5.56
					V258.65z"/>
				<path fill="#0097DB" d="M409.19,215.94h49.32v12.65h-17.61v40.27h-13.28v-40.27h-18.44V215.94z"/>
				<path fill="#0097DB" d="M492.08,214.58c4.99,0,9.69,1.25,14.08,3.75c4.39,2.5,7.82,5.89,10.29,10.17
					c2.46,4.28,3.7,8.9,3.7,13.86c0,4.99-1.24,9.66-3.72,14.01c-2.48,4.35-5.86,7.74-10.14,10.19s-9,3.67-14.16,3.67
					c-7.59,0-14.07-2.7-19.43-8.1c-5.37-5.4-8.05-11.96-8.05-19.68c0-8.27,3.03-15.16,9.1-20.67
					C479.06,216.98,485.17,214.58,492.08,214.58z M492.3,227.08c-4.13,0-7.56,1.43-10.31,4.3c-2.75,2.87-4.12,6.54-4.12,11.02
					c0,4.61,1.36,8.33,4.07,11.19c2.71,2.85,6.15,4.28,10.3,4.28c4.16,0,7.62-1.44,10.38-4.33c2.76-2.89,4.14-6.6,4.14-11.14
					c0-4.54-1.36-8.23-4.07-11.07C499.99,228.5,496.52,227.08,492.3,227.08z"/>
				<path fill="#0097DB" d="M563.37,249.32l16.24-33.38h8.75l13.26,52.92h-12.99l-7.08-31.05l-15.76,31.05h-5.45l-15.42-31.08
					l-7.12,31.08h-12.94l13.25-52.92h8.75L563.37,249.32z"/>
				<path fill="#0097DB" d="M648.07,215.94h13.28v52.92h-13.28v-5.59c-2.59,2.46-5.19,4.24-7.8,5.33c-2.61,1.09-5.43,1.63-8.48,1.63
					c-6.83,0-12.75-2.65-17.73-7.95c-4.99-5.3-7.48-11.89-7.48-19.77c0-8.17,2.41-14.87,7.24-20.09c4.83-5.22,10.69-7.83,17.59-7.83
					c3.17,0,6.15,0.6,8.94,1.8c2.79,1.2,5.36,3,7.73,5.4V215.94z M634.11,226.84c-4.1,0-7.51,1.45-10.23,4.35
					c-2.71,2.9-4.07,6.62-4.07,11.16c0,4.57,1.38,8.33,4.14,11.29c2.76,2.95,6.16,4.43,10.21,4.43c4.17,0,7.63-1.45,10.37-4.35
					c2.75-2.9,4.12-6.7,4.12-11.41c0-4.6-1.37-8.33-4.12-11.19C641.79,228.26,638.31,226.84,634.11,226.84z"/>
				<path fill="#0097DB" d="M670.06,215.94h49.32v12.65h-17.61v40.27h-13.28v-40.27h-18.44V215.94z"/>
				<path fill="#0097DB" d="M735.09,268.86h-7.05v-52.92h12.94v31.08l27.09-31.08h6.37v52.92H761.5v-30.45L735.09,268.86z"/>
				<path fill="#0097DB" d="M787.87,215.94h13.28v19.8l18.29-19.8h16.21l-23.57,25.79l23.86,27.13h-17.61l-15.78-18.69l-1.4,1.67
					v17.02h-13.28V215.94z"/>
				<path fill="#0097DB" d="M880.43,215.94h13.28v52.92h-13.28v-5.59c-2.59,2.46-5.19,4.24-7.8,5.33c-2.61,1.09-5.43,1.63-8.48,1.63
					c-6.83,0-12.75-2.65-17.73-7.95c-4.99-5.3-7.48-11.89-7.48-19.77c0-8.17,2.41-14.87,7.24-20.09c4.83-5.22,10.69-7.83,17.59-7.83
					c3.17,0,6.15,0.6,8.94,1.8c2.79,1.2,5.36,3,7.73,5.4V215.94z M866.47,226.84c-4.1,0-7.51,1.45-10.23,4.35
					c-2.71,2.9-4.07,6.62-4.07,11.16c0,4.57,1.38,8.33,4.14,11.29c2.76,2.95,6.16,4.43,10.21,4.43c4.17,0,7.63-1.45,10.37-4.35
					c2.75-2.9,4.12-6.7,4.12-11.41c0-4.6-1.37-8.33-4.12-11.19C874.14,228.26,870.67,226.84,866.47,226.84z"/>
			</g>
		</g>
		<g>
			<g>
				<path fill="#0097DB" d="M293.13,47.02h108.04v150.22h-28.9V73.78h-50.14v123.46h-29V47.02z"/>
				<path fill="#0097DB" d="M435.39,47.02h30.33c16.41,0,28.24,1.52,35.49,4.54s12.97,7.93,17.16,14.71
					c4.19,6.78,6.28,14.89,6.28,24.36c0,10.49-2.74,19.2-8.22,26.14c-5.48,6.94-12.92,11.78-22.31,14.5
					c-5.51,1.57-15.56,2.35-30.12,2.35v63.62h-28.59V47.02z M463.98,105.74h9.09c7.15,0,12.12-0.51,14.91-1.54
					c2.79-1.02,4.99-2.71,6.59-5.07c1.6-2.36,2.4-5.21,2.4-8.56c0-5.81-2.25-10.04-6.74-12.71c-3.27-1.98-9.33-2.97-18.18-2.97
					h-8.07V105.74z"/>
				<path fill="#0097DB" d="M623.55,43.25c21.25,0,39.53,7.69,54.82,23.08c15.29,15.39,22.94,34.14,22.94,56.27
					c0,21.92-7.55,40.47-22.64,55.66c-15.09,15.18-33.4,22.77-54.93,22.77c-22.55,0-41.28-7.79-56.2-23.39
					c-14.92-15.59-22.38-34.11-22.38-55.55c0-14.36,3.47-27.57,10.42-39.62c6.95-12.05,16.5-21.6,28.66-28.65
					C596.41,46.77,609.51,43.25,623.55,43.25z M623.24,71.23c-13.9,0-25.59,4.83-35.06,14.5c-9.47,9.67-14.21,21.96-14.21,36.87
					c0,16.61,5.96,29.75,17.89,39.42c9.27,7.56,19.9,11.33,31.89,11.33c13.56,0,25.11-4.9,34.65-14.71s14.31-21.89,14.31-36.25
					c0-14.3-4.81-26.4-14.41-36.3C648.69,76.18,637,71.23,623.24,71.23z"/>
				<path fill="#0097DB" d="M742.84,47.02h27.86l34.82,104.78l35.14-104.78h27.84l25.2,150.22h-27.65l-16.11-94.87l-31.91,94.87
					h-25.2l-31.63-94.87l-16.49,94.87h-27.88L742.84,47.02z"/>
			</g>
		</g>
	</g>
</g>
</svg>
