<svg width="140" height="28" viewBox="0 0 140 28" fill="none" xmlns="http://www.w3.org/2000/svg">
<g clip-path="url(#clip0)">
<path d="M41.9476 18.9919C41.9476 16.4894 40.0839 15.7106 37.9401 14.8816C36.2557 14.2428 35.0067 13.7091 35.0067 12.0378C35.0067 10.7625 36.0786 9.71687 37.9401 9.71687C38.9771 9.72471 39.9923 10.0159 40.8757 10.5591L41.462 9.43469C40.3612 8.80555 39.1116 8.4837 37.8439 8.50281C35.057 8.50281 33.4689 10.0625 33.4689 12.0487C33.4689 14.4222 35.2298 15.2644 37.2707 16.03C39.0579 16.6862 40.3836 17.3053 40.3836 18.9656C40.3836 20.5231 39.0317 21.5163 37.0148 21.5163C35.8562 21.4881 34.7203 21.1884 33.6986 20.6413L33.1123 21.8159C34.0814 22.3759 35.6629 22.7588 37.0498 22.7588C40.0861 22.7588 41.9498 21.2537 41.9498 18.9831L41.9476 18.9919ZM55.9629 8.75H54.3289L50.5532 19.3988C50.345 20 50.1748 20.6137 50.0436 21.2362H49.9911C49.8753 20.6127 49.7137 19.9985 49.5076 19.3988L45.7298 8.75H44.0957L49.2779 22.505L47.2107 28H48.7661L55.9629 8.75ZM66.5811 18.9853C66.5811 16.4828 64.7195 15.7041 62.5757 14.875C60.8914 14.2362 59.6401 13.7025 59.6401 12.0312C59.6401 10.7559 60.712 9.71031 62.5757 9.71031C63.612 9.71855 64.6264 10.0098 65.5092 10.5525L66.0976 9.42812C64.9957 8.79473 63.7438 8.4691 62.4729 8.48531C59.6904 8.48531 58.1089 10.0406 58.1089 12.0312C58.1089 14.4047 59.8698 15.2469 61.9107 16.0125C63.6979 16.6687 65.0257 17.2878 65.0257 18.9481C65.0257 20.5056 63.6717 21.4987 61.657 21.4987C60.4976 21.4708 59.361 21.1711 58.3386 20.6237L57.7501 21.8247C58.7192 22.3847 60.3007 22.7675 61.6876 22.7675C64.7261 22.7675 66.5876 21.2625 66.5876 18.9919L66.5811 18.9853ZM75.4842 22.4853V21.1728C75.2121 21.2603 74.9277 21.3031 74.642 21.2997C73.4192 21.2997 72.3714 20.6631 72.3714 19.1319V9.905H75.4842V8.75H72.3714V4.77531L70.9167 5.3375V8.75H68.7729V9.89844H70.9167V19.1953C70.9167 21.5163 72.3714 22.6406 74.4167 22.6406C74.7798 22.659 75.143 22.607 75.4864 22.4875L75.4842 22.4853ZM88.3751 14.1925C88.3751 10.57 86.2576 8.505 83.0682 8.505C79.4676 8.505 77.2495 11.3881 77.2495 15.6253C77.2495 20.2956 79.7236 22.7697 83.6545 22.7697C85.3892 22.7697 87.0232 22.3606 87.942 21.8269L87.4323 20.6522C86.5573 21.1619 85.0829 21.5272 83.7136 21.5272C80.8042 21.5272 78.9164 19.8187 78.7129 16.45L88.3576 15.0216C88.3839 14.7131 88.3839 14.4594 88.3839 14.2034L88.3751 14.1925ZM86.9204 14.0919L78.6254 15.2906C78.7042 11.9219 80.3623 9.70156 83.0682 9.70156C85.3651 9.70156 86.8942 11.1059 86.9204 14.0919ZM109.498 22.5116V12.8144C109.498 10.1609 107.634 8.50281 104.904 8.50281C102.887 8.50281 101.305 9.345 100.463 10.1872C99.7501 9.26844 98.2451 8.50281 96.1517 8.50281C94.5803 8.50415 93.0256 8.82492 91.582 9.44562V22.5116H93.0892V10.3141C94.0724 9.92763 95.1216 9.73667 96.1779 9.75187C98.2954 9.75187 99.8004 10.7997 99.8004 12.4841V22.5116H101.305V11.1366C102.045 10.2616 103.219 9.75844 104.7 9.75844C106.588 9.75844 107.993 10.9069 107.993 12.8975V22.5225L109.498 22.5116ZM123.314 21.8247V13.1469C123.314 9.75187 121.323 8.47656 118.031 8.47656C116.385 8.48953 114.756 8.81851 113.234 9.44562L113.947 11.3597C115.148 10.8341 116.44 10.548 117.751 10.5175C119.512 10.5175 120.66 11.13 120.66 12.8669V13.7419C116.504 13.9606 112.416 14.6606 112.416 18.4909C112.416 21.1947 114.406 22.8003 118.364 22.8003C120.304 22.8003 122.319 22.3628 123.314 21.8334V21.8247ZM120.66 20.4203C120.223 20.6237 119.179 20.7769 118.287 20.7769C116.169 20.7769 115.045 19.8844 115.045 18.4297C115.045 15.9797 117.854 15.75 120.66 15.5859V20.3984V20.4203ZM129.728 4.67031C129.712 4.24069 129.53 3.83386 129.221 3.53544C128.911 3.23701 128.498 3.07026 128.068 3.07026C127.638 3.07026 127.225 3.23701 126.916 3.53544C126.606 3.83386 126.425 4.24069 126.409 4.67031C126.425 5.09994 126.606 5.50676 126.916 5.80519C127.225 6.10361 127.638 6.27037 128.068 6.27037C128.498 6.27037 128.911 6.10361 129.221 5.80519C129.53 5.50676 129.712 5.09994 129.728 4.67031ZM129.472 22.5072V8.75H126.656V22.505L129.472 22.5072ZM139.753 8.575C139.238 8.49553 138.717 8.46113 138.195 8.47219C136.154 8.47219 134.188 8.88125 132.862 9.44125V22.5072H135.625V11.1059C136.775 10.712 138.012 10.6409 139.2 10.9003L139.735 8.57938L139.753 8.575Z" fill="black"/>
<path d="M14.7218 20.2716C14.5552 20.3949 14.3558 20.466 14.1488 20.476C13.9418 20.486 13.7365 20.4343 13.5589 20.3276C13.3812 20.2209 13.2392 20.0639 13.1507 19.8765C13.0623 19.6891 13.0314 19.4797 13.062 19.2747C13.0926 19.0697 13.1833 18.8784 13.3226 18.725C13.4619 18.5716 13.6436 18.4629 13.8447 18.4127C14.0457 18.3626 14.2572 18.3731 14.4522 18.4431C14.6473 18.5131 14.8172 18.6394 14.9405 18.8059C15.1042 19.0299 15.173 19.3093 15.132 19.5837C15.0911 19.858 14.9437 20.1052 14.7218 20.2716Z" fill="#004985"/>
<path d="M17.1675 19.9413C17.0343 20.0397 16.8749 20.0965 16.7094 20.1045C16.5439 20.1124 16.3798 20.071 16.2378 19.9857C16.0958 19.9004 15.9823 19.7749 15.9116 19.625C15.8409 19.4752 15.8163 19.3078 15.8407 19.1439C15.8652 18.9801 15.9377 18.8271 16.049 18.7045C16.1604 18.5818 16.3056 18.4949 16.4663 18.4548C16.627 18.4146 16.796 18.423 16.952 18.4789C17.1079 18.5348 17.2438 18.6357 17.3425 18.7688C17.4726 18.9482 17.5272 19.1715 17.4945 19.3907C17.4617 19.61 17.3443 19.8076 17.1675 19.9413Z" fill="#004985"/>
<path d="M18.9546 18.1716C18.8214 18.2701 18.662 18.3269 18.4965 18.3348C18.331 18.3427 18.1669 18.3014 18.0249 18.216C17.8829 18.1307 17.7694 18.0052 17.6987 17.8553C17.628 17.7055 17.6034 17.5381 17.6278 17.3742C17.6523 17.2104 17.7248 17.0575 17.8361 16.9348C17.9475 16.8121 18.0927 16.7252 18.2534 16.6851C18.4141 16.6449 18.5831 16.6533 18.7391 16.7092C18.8951 16.7651 19.0309 16.866 19.1296 16.9991C19.2559 17.1798 19.3082 17.4021 19.2757 17.6202C19.2431 17.8383 19.1282 18.0356 18.9546 18.1716Z" fill="#004985"/>
<path d="M11.957 15.8966C11.8072 16.0159 11.6346 16.1031 11.4497 16.1528C11.2648 16.2026 11.0717 16.2137 10.8823 16.1856C10.6929 16.1575 10.5113 16.0907 10.3489 15.9894C10.1864 15.8882 10.0465 15.7545 9.93789 15.5969C9.81601 15.4457 9.72614 15.2713 9.67374 15.0843C9.62134 14.8972 9.60751 14.7015 9.63308 14.509C9.65866 14.3165 9.7231 14.1312 9.82251 13.9643C9.92191 13.7975 10.0542 13.6526 10.2113 13.5384C10.3677 13.4196 10.5463 13.3332 10.7365 13.2844C10.9268 13.2357 11.1249 13.2254 11.3191 13.2544C11.5134 13.2833 11.6999 13.3509 11.8677 13.453C12.0355 13.5551 12.1811 13.6898 12.296 13.8491C12.4128 14.0041 12.4969 14.1812 12.5432 14.3696C12.5895 14.5581 12.597 14.754 12.5653 14.9455C12.5336 15.137 12.4633 15.32 12.3588 15.4835C12.2542 15.647 12.1175 15.7875 11.957 15.8966Z" fill="#004985"/>
<path d="M13.978 12.9959C13.8206 13.1223 13.6388 13.2149 13.444 13.2681C13.2492 13.3212 13.0455 13.3337 12.8457 13.3048C12.6459 13.2758 12.4541 13.2061 12.2824 13.0999C12.1107 12.9937 11.9626 12.8533 11.8474 12.6875C11.7163 12.5276 11.6193 12.3424 11.5626 12.1435C11.5059 11.9446 11.4906 11.7362 11.5176 11.5312C11.5447 11.3261 11.6136 11.1288 11.72 10.9514C11.8263 10.7741 11.968 10.6204 12.1362 10.5C12.3012 10.3744 12.4897 10.2832 12.6906 10.2316C12.8914 10.1801 13.1006 10.1693 13.3057 10.1999C13.5108 10.2304 13.7077 10.3018 13.8848 10.4097C14.0619 10.5176 14.2156 10.6599 14.3368 10.8281C14.4599 10.9918 14.5484 11.1788 14.5971 11.3778C14.6458 11.5767 14.6536 11.7835 14.6201 11.9855C14.5865 12.1876 14.5124 12.3807 14.402 12.5533C14.2916 12.7258 14.1474 12.8742 13.978 12.9894V12.9959Z" fill="#004985"/>
<path d="M12.4796 18.9C12.3511 19.002 12.2029 19.0765 12.0443 19.1188C11.8858 19.1611 11.7202 19.1703 11.5579 19.1459C11.3956 19.1215 11.2401 19.0639 11.101 18.9768C10.9619 18.8898 10.8422 18.775 10.7493 18.6397C10.6467 18.5106 10.5712 18.3622 10.5273 18.2033C10.4835 18.0444 10.4721 17.8783 10.494 17.7149C10.5158 17.5515 10.5704 17.3942 10.6545 17.2524C10.7386 17.1106 10.8505 16.9872 10.9834 16.8897C11.1174 16.7875 11.2705 16.7133 11.4336 16.6714C11.5968 16.6294 11.7667 16.6207 11.9334 16.6455C12.1 16.6704 12.2599 16.7285 12.4037 16.8162C12.5475 16.904 12.6723 17.0197 12.7706 17.1566C12.87 17.2892 12.9415 17.4407 12.9808 17.6018C13.0201 17.7628 13.0263 17.9302 12.9991 18.0937C12.9719 18.2573 12.9119 18.4136 12.8226 18.5533C12.7333 18.693 12.6166 18.8132 12.4796 18.9066V18.9Z" fill="#004985"/>
<path d="M19.2893 15.6516C19.1896 15.7258 19.07 15.7688 18.9458 15.775C18.8216 15.7812 18.6984 15.7504 18.5917 15.6865C18.4851 15.6226 18.3998 15.5284 18.3467 15.416C18.2936 15.3035 18.2751 15.1778 18.2936 15.0549C18.312 14.9319 18.3666 14.8171 18.4503 14.7252C18.534 14.6333 18.6432 14.5683 18.7639 14.5385C18.8847 14.5087 19.0115 14.5154 19.1284 14.5578C19.2453 14.6002 19.347 14.6763 19.4206 14.7766C19.5118 14.9125 19.5489 15.0776 19.5246 15.2395C19.5003 15.4014 19.4164 15.5484 19.2893 15.6516Z" fill="#004985"/>
<path d="M18.4866 13.51C18.4034 13.5723 18.3036 13.6085 18.1998 13.614C18.096 13.6195 17.9929 13.5941 17.9035 13.5409C17.8142 13.4878 17.7427 13.4093 17.698 13.3155C17.6533 13.2216 17.6375 13.1166 17.6525 13.0137C17.6675 12.9109 17.7128 12.8148 17.7825 12.7377C17.8522 12.6606 17.9432 12.6059 18.044 12.5806C18.1448 12.5552 18.2509 12.5604 18.3488 12.5954C18.4466 12.6304 18.5319 12.6937 18.5938 12.7772C18.6721 12.8902 18.7046 13.0287 18.6847 13.1647C18.6648 13.3008 18.594 13.4242 18.4866 13.51Z" fill="#004985"/>
<path d="M16.6643 12.0444C16.5809 12.1061 16.481 12.1417 16.3773 12.1467C16.2737 12.1517 16.1708 12.1258 16.0818 12.0724C15.9929 12.0189 15.9217 11.9403 15.8774 11.8464C15.8331 11.7526 15.8176 11.6477 15.8329 11.545C15.8481 11.4423 15.8935 11.3465 15.9632 11.2696C16.033 11.1927 16.1239 11.1382 16.2246 11.113C16.3253 11.0878 16.4312 11.093 16.5289 11.1279C16.6267 11.1629 16.7118 11.226 16.7737 11.3094C16.8524 11.4228 16.8849 11.562 16.8646 11.6985C16.8443 11.8351 16.7727 11.9588 16.6643 12.0444Z" fill="#004985"/>
<path d="M16.2445 24.2922C16.0882 24.3493 15.9219 24.3738 15.7558 24.3643C15.5897 24.3548 15.4273 24.3114 15.2786 24.2368C15.1298 24.1623 14.9979 24.0581 14.8909 23.9307C14.7839 23.8033 14.7041 23.6553 14.6564 23.4959C14.5955 23.3374 14.5677 23.1682 14.5745 22.9986C14.5813 22.8289 14.6226 22.6625 14.6959 22.5093C14.7692 22.3562 14.8729 22.2196 15.0008 22.1079C15.1286 21.9962 15.2779 21.9118 15.4395 21.8597C15.6015 21.8027 15.7733 21.7787 15.9448 21.7893C16.1162 21.7999 16.2838 21.8447 16.4376 21.9212C16.5913 21.9977 16.7282 22.1043 16.8401 22.2346C16.952 22.3649 17.0366 22.5164 17.0889 22.68C17.1442 22.8404 17.1665 23.0104 17.1542 23.1796C17.1419 23.3489 17.0954 23.5139 17.0175 23.6646C16.9395 23.8154 16.8318 23.9487 16.7008 24.0566C16.5698 24.1645 16.4183 24.2446 16.2554 24.2922H16.2445Z" fill="#004985"/>
<path d="M22.4722 17.1128C22.3491 17.1548 22.2163 17.1593 22.0906 17.1257C21.965 17.092 21.8521 17.0218 21.7665 16.924C21.6808 16.8261 21.6261 16.705 21.6094 16.576C21.5927 16.447 21.6147 16.3159 21.6727 16.1995C21.7306 16.083 21.8218 15.9864 21.9348 15.9219C22.0477 15.8574 22.1773 15.8279 22.307 15.8371C22.4367 15.8464 22.5608 15.894 22.6634 15.9739C22.7661 16.0538 22.8426 16.1624 22.8834 16.2859C22.9121 16.3672 22.9242 16.4533 22.9189 16.5393C22.9136 16.6253 22.8912 16.7093 22.8528 16.7864C22.8144 16.8635 22.761 16.9322 22.6956 16.9882C22.6302 17.0443 22.5542 17.0867 22.4722 17.1128Z" fill="#004985"/>
<path d="M19.5782 22.7806C19.3819 22.8473 19.1701 22.8543 18.9698 22.8006C18.7695 22.7469 18.5896 22.6349 18.4529 22.4789C18.3163 22.3229 18.229 22.1298 18.2022 21.9242C18.1753 21.7185 18.2101 21.5095 18.3021 21.3236C18.3941 21.1378 18.5392 20.9834 18.7191 20.88C18.8989 20.7767 19.1053 20.729 19.3122 20.7431C19.5192 20.7572 19.7172 20.8323 19.8814 20.9591C20.0456 21.0858 20.1685 21.2584 20.2345 21.455C20.2803 21.585 20.2996 21.7229 20.2913 21.8605C20.283 21.9981 20.2472 22.1327 20.186 22.2563C20.1248 22.3798 20.0395 22.4899 19.9352 22.5799C19.8308 22.67 19.7094 22.7382 19.5782 22.7806Z" fill="#004985"/>
<path d="M21.6913 20.0769C21.5342 20.1291 21.3652 20.1336 21.2055 20.0899C21.0459 20.0462 20.9028 19.9561 20.7943 19.8311C20.6857 19.7061 20.6167 19.5517 20.5958 19.3875C20.5749 19.2233 20.6032 19.0566 20.6769 18.9084C20.7507 18.7602 20.8668 18.6372 21.0104 18.5549C21.154 18.4726 21.3188 18.4347 21.484 18.446C21.6491 18.4573 21.8072 18.5172 21.9383 18.6182C22.0695 18.7193 22.1677 18.8569 22.2207 19.0137C22.256 19.1183 22.2703 19.2288 22.2628 19.3389C22.2553 19.449 22.2261 19.5565 22.1769 19.6553C22.1277 19.7541 22.0595 19.8422 21.9762 19.9145C21.8928 19.9869 21.796 20.042 21.6913 20.0769Z" fill="#004985"/>
<path d="M12.2806 23.9684C12.0986 24.0368 11.9045 24.0668 11.7104 24.0567C11.5163 24.0466 11.3263 23.9966 11.1524 23.9097C10.9785 23.8229 10.8244 23.7011 10.6997 23.552C10.575 23.4029 10.4825 23.2296 10.4278 23.0431C10.3577 22.8594 10.3257 22.6633 10.3337 22.4668C10.3418 22.2702 10.3897 22.0774 10.4747 21.9C10.5596 21.7226 10.6797 21.5643 10.8277 21.4348C10.9757 21.3053 11.1485 21.2072 11.3356 21.1466C11.5232 21.0809 11.722 21.0534 11.9204 21.0656C12.1188 21.0778 12.3127 21.1296 12.4908 21.2178C12.669 21.3061 12.8276 21.429 12.9576 21.5794C13.0875 21.7298 13.1861 21.9047 13.2475 22.0938C13.3113 22.2797 13.3367 22.4767 13.3223 22.6727C13.3078 22.8688 13.2538 23.0599 13.1634 23.2345C13.0731 23.4091 12.9482 23.5636 12.7965 23.6886C12.6448 23.8136 12.4693 23.9066 12.2806 23.9619V23.9684Z" fill="#004985"/>
<path d="M9.0476 21.7153C8.84252 21.7918 8.6239 21.8254 8.40531 21.8139C8.18672 21.8024 7.97283 21.7461 7.77692 21.6484C7.58101 21.5508 7.40727 21.4139 7.26649 21.2463C7.1257 21.0787 7.02088 20.8839 6.95854 20.6741C6.87986 20.4666 6.84413 20.2454 6.85352 20.0237C6.8629 19.8021 6.91721 19.5846 7.01314 19.3846C7.10907 19.1845 7.24463 19.006 7.4116 18.86C7.57857 18.7139 7.77346 18.6032 7.98447 18.5347C8.19631 18.4606 8.42084 18.4297 8.64481 18.4439C8.86878 18.458 9.08765 18.5169 9.2885 18.617C9.48934 18.7171 9.66809 18.8564 9.8142 19.0268C9.9603 19.1971 10.0708 19.395 10.1392 19.6087C10.2113 19.8187 10.2401 20.041 10.2237 20.2624C10.2074 20.4838 10.1462 20.6995 10.0439 20.8965C9.94159 21.0935 9.80035 21.2677 9.62871 21.4084C9.45707 21.5492 9.25863 21.6536 9.04541 21.7153H9.0476Z" fill="#004985"/>
<path d="M7.50971 17.6072C7.29482 17.6884 7.06545 17.7243 6.83603 17.7125C6.60661 17.7008 6.3821 17.6417 6.17662 17.539C5.97115 17.4362 5.78917 17.2921 5.64213 17.1156C5.49508 16.9391 5.38616 16.7341 5.32221 16.5134C5.24007 16.297 5.20273 16.0661 5.21245 15.8347C5.22217 15.6034 5.27875 15.3765 5.37876 15.1676C5.47877 14.9588 5.62013 14.7725 5.79428 14.6199C5.96843 14.4673 6.17174 14.3517 6.39189 14.28C6.61316 14.2019 6.84788 14.1691 7.08208 14.1835C7.31628 14.198 7.54519 14.2594 7.75519 14.3641C7.96519 14.4687 8.15198 14.6146 8.30447 14.7929C8.45696 14.9713 8.57203 15.1785 8.64283 15.4022C8.71667 15.6205 8.7456 15.8514 8.72786 16.0812C8.71013 16.3109 8.6461 16.5347 8.53963 16.7391C8.43316 16.9434 8.28645 17.1241 8.10832 17.2703C7.9302 17.4165 7.72434 17.5251 7.50314 17.5897L7.50971 17.6072Z" fill="#004985"/>
<path d="M8.11775 13.23C7.89496 13.314 7.65723 13.3512 7.41943 13.3391C7.18163 13.327 6.94888 13.266 6.73574 13.1598C6.52261 13.0537 6.33368 12.9047 6.18078 12.7221C6.02787 12.5396 5.91429 12.3275 5.84712 12.0991C5.76157 11.8739 5.72266 11.6336 5.73277 11.3929C5.74287 11.1522 5.80177 10.9161 5.90589 10.6988C6.01001 10.4816 6.15719 10.2878 6.33848 10.1291C6.51978 9.97048 6.73142 9.85032 6.96056 9.77594C7.19049 9.69525 7.43424 9.66138 7.67746 9.67633C7.92068 9.69128 8.15844 9.75474 8.37676 9.86298C8.59508 9.97122 8.78953 10.1221 8.94867 10.3066C9.1078 10.4911 9.22841 10.7056 9.30337 10.9375C9.38165 11.1652 9.41287 11.4064 9.39514 11.6466C9.37741 11.8867 9.31111 12.1207 9.20025 12.3345C9.08939 12.5482 8.93629 12.7372 8.75021 12.89C8.56413 13.0428 8.34897 13.1563 8.11775 13.2234V13.23Z" fill="#004985"/>
<path d="M15.8485 9.22687C15.6178 9.31324 15.3718 9.35116 15.1258 9.33827C14.8798 9.32538 14.6391 9.26196 14.4186 9.15196C14.1982 9.04195 14.0028 8.88773 13.8446 8.69889C13.6864 8.51005 13.5688 8.29066 13.4991 8.05437C13.4108 7.82112 13.3707 7.57236 13.3813 7.32316C13.3919 7.07397 13.4529 6.8295 13.5606 6.60456C13.6684 6.37962 13.8207 6.17888 14.0083 6.01449C14.1958 5.85009 14.4148 5.72546 14.652 5.64812C14.8905 5.56514 15.1433 5.5307 15.3953 5.54683C15.6474 5.56296 15.8937 5.62933 16.1197 5.74204C16.3457 5.85475 16.5469 6.01153 16.7115 6.20314C16.8761 6.39476 17.0006 6.61734 17.0779 6.85781C17.1585 7.09386 17.1905 7.3438 17.1719 7.59255C17.1533 7.84129 17.0844 8.08368 16.9695 8.30509C16.8546 8.5265 16.6961 8.72233 16.5034 8.88075C16.3107 9.03918 16.088 9.15692 15.8485 9.22687Z" fill="#004985"/>
<path d="M11.329 9.98813C11.1019 10.0735 10.8596 10.1112 10.6173 10.0987C10.375 10.0863 10.1378 10.024 9.92065 9.91587C9.70348 9.80769 9.51093 9.65591 9.35504 9.46999C9.19915 9.28408 9.08325 9.06802 9.01459 8.83531C8.92729 8.60551 8.88756 8.36038 8.89782 8.11477C8.90808 7.86916 8.96811 7.62819 9.07426 7.40647C9.18042 7.18475 9.33049 6.9869 9.51539 6.82491C9.70028 6.66291 9.91615 6.54015 10.1499 6.46406C10.3849 6.38215 10.6338 6.34811 10.8821 6.36396C11.1305 6.3798 11.3731 6.44521 11.5957 6.55633C11.8184 6.66744 12.0165 6.82201 12.1784 7.01092C12.3404 7.19983 12.4629 7.41925 12.5386 7.65625C12.6186 7.88854 12.6505 8.13465 12.6325 8.37965C12.6144 8.62465 12.5468 8.86343 12.4337 9.0815C12.3205 9.29956 12.1643 9.49237 11.9744 9.64822C11.7845 9.80407 11.5649 9.91971 11.329 9.98813Z" fill="#004985"/>
<path d="M22.4503 13.9738C22.3272 14.0159 22.1942 14.0205 22.0685 13.9869C21.9427 13.9533 21.8297 13.8831 21.744 13.7851C21.6582 13.6872 21.6036 13.5659 21.5869 13.4368C21.5703 13.3077 21.5924 13.1765 21.6505 13.06C21.7086 12.9435 21.8 12.8469 21.9132 12.7825C22.0263 12.7181 22.1561 12.6888 22.2859 12.6984C22.4158 12.7079 22.5398 12.7559 22.6423 12.8361C22.7448 12.9164 22.8212 13.0253 22.8616 13.1491C22.8899 13.2302 22.9017 13.3161 22.8963 13.4018C22.8909 13.4875 22.8683 13.5713 22.83 13.6482C22.7917 13.7251 22.7383 13.7935 22.6731 13.8494C22.6079 13.9053 22.5322 13.9476 22.4503 13.9738Z" fill="#004985"/>
<path d="M21.4375 11.6069C21.3144 11.6489 21.1816 11.6533 21.0559 11.6197C20.9303 11.5861 20.8175 11.5159 20.7318 11.418C20.6461 11.3202 20.5915 11.199 20.5748 11.07C20.5581 10.941 20.5801 10.81 20.638 10.6935C20.6959 10.5771 20.7871 10.4805 20.9001 10.4159C21.013 10.3514 21.1426 10.3219 21.2723 10.3312C21.4021 10.3405 21.5261 10.3881 21.6288 10.468C21.7314 10.5479 21.808 10.6565 21.8487 10.78C21.8771 10.8612 21.8889 10.9473 21.8835 11.0332C21.8781 11.1191 21.8556 11.203 21.8173 11.2801C21.779 11.3571 21.7256 11.4257 21.6604 11.4818C21.5952 11.538 21.5194 11.5805 21.4375 11.6069Z" fill="#004985"/>
<path d="M19.6503 9.58125C19.5272 9.62251 19.3947 9.62636 19.2695 9.59231C19.1443 9.55827 19.0319 9.48786 18.9467 9.38998C18.8615 9.29211 18.8072 9.17116 18.7907 9.04244C18.7742 8.91372 18.7963 8.783 18.8541 8.6668C18.9119 8.5506 19.0028 8.45415 19.1154 8.38963C19.228 8.32512 19.3572 8.29544 19.4867 8.30434C19.6162 8.31325 19.7401 8.36034 19.8428 8.43966C19.9455 8.51899 20.0224 8.62699 20.0637 8.75C20.0917 8.83125 20.1032 8.91727 20.0974 9.003C20.0917 9.08874 20.069 9.17248 20.0304 9.2493C19.9919 9.32611 19.9385 9.39446 19.8732 9.45034C19.8079 9.50622 19.7321 9.54849 19.6503 9.57469V9.58125Z" fill="#004985"/>
<path d="M19.0487 5.94125C18.7643 5.82399 18.5061 5.6512 18.2892 5.43298C18.0724 5.21477 17.9012 4.9555 17.7857 4.67035C17.6702 4.3852 17.6127 4.07989 17.6166 3.77227C17.6205 3.46464 17.6857 3.16088 17.8084 2.87875C17.9283 2.59622 18.1027 2.34009 18.3217 2.12496C18.5406 1.90984 18.7997 1.73994 19.0843 1.62497C19.3689 1.51 19.6733 1.45221 19.9803 1.45489C20.2872 1.45758 20.5906 1.52069 20.8731 1.64062C21.1556 1.76056 21.4118 1.93497 21.6269 2.15389C21.842 2.37281 22.0119 2.63196 22.1269 2.91654C22.2418 3.20113 22.2996 3.50557 22.2969 3.81249C22.2943 4.1194 22.2312 4.42279 22.1112 4.70531C21.9938 4.98954 21.8208 5.24749 21.6025 5.46406C21.3841 5.68062 21.1248 5.85145 20.8396 5.96654C20.5544 6.08164 20.2491 6.13868 19.9416 6.13434C19.6341 6.12999 19.3305 6.06435 19.0487 5.94125Z" fill="#004985"/>
<path d="M2.05615 11.97C1.80964 11.873 1.58548 11.7268 1.39737 11.5403C1.20925 11.3538 1.06113 11.1309 0.962045 10.8853C0.86296 10.6396 0.814992 10.3763 0.82107 10.1115C0.827148 9.84667 0.887146 9.58586 0.997398 9.345C1.09499 9.09853 1.24098 8.87412 1.42676 8.68501C1.61253 8.49591 1.83431 8.34595 2.07901 8.24399C2.32371 8.14204 2.58635 8.09015 2.85144 8.0914C3.11652 8.09264 3.37867 8.147 3.6224 8.25125C3.87297 8.3527 4.1006 8.50349 4.29174 8.69466C4.48288 8.88583 4.63364 9.11347 4.73506 9.36406C4.83648 9.61465 4.88649 9.88307 4.88211 10.1534C4.87774 10.4237 4.81907 10.6903 4.70959 10.9375C4.60681 11.1825 4.45578 11.4043 4.26548 11.5897C4.07518 11.7751 3.8495 11.9203 3.6019 12.0167C3.3543 12.113 3.08984 12.1585 2.82428 12.1505C2.55872 12.1425 2.29749 12.0811 2.05615 11.97Z" fill="#004985"/>
<path d="M1.1528 16.5309C0.921175 16.4368 0.71058 16.2976 0.533269 16.1213C0.355958 15.945 0.215472 15.7353 0.119986 15.5042C0.0244992 15.2731 -0.0240813 15.0254 -0.0229292 14.7753C-0.0217771 14.5253 0.0290846 14.278 0.126697 14.0479C0.224308 13.8177 0.366721 13.6092 0.545649 13.4346C0.724577 13.26 0.936447 13.1227 1.16893 13.0307C1.40142 12.9387 1.64987 12.8939 1.89984 12.8988C2.14982 12.9037 2.39631 12.9583 2.62499 13.0594C2.85662 13.1535 3.06721 13.2927 3.24452 13.469C3.42183 13.6453 3.56232 13.8551 3.6578 14.0861C3.75329 14.3172 3.80187 14.5649 3.80072 14.815C3.79957 15.065 3.74871 15.3123 3.65109 15.5425C3.55348 15.7726 3.41107 15.9811 3.23214 16.1557C3.05321 16.3304 2.84134 16.4677 2.60886 16.5596C2.37638 16.6516 2.12792 16.6965 1.87795 16.6915C1.62798 16.6866 1.38148 16.632 1.1528 16.5309Z" fill="#004985"/>
<path d="M2.48497 20.7812C2.20291 20.6617 1.96266 20.4611 1.7946 20.205C1.62654 19.9488 1.53823 19.6486 1.54083 19.3422C1.54343 19.0359 1.63683 18.7372 1.80921 18.4839C1.98159 18.2306 2.22522 18.0342 2.50926 17.9194C2.79331 17.8046 3.10502 17.7767 3.40496 17.8391C3.7049 17.9015 3.97959 18.0514 4.1943 18.27C4.409 18.4885 4.55407 18.7658 4.61115 19.0668C4.66823 19.3678 4.63476 19.679 4.51497 19.9609C4.43572 20.1482 4.3203 20.3181 4.17533 20.4607C4.03036 20.6033 3.85868 20.716 3.67012 20.7921C3.48156 20.8683 3.27982 20.9066 3.07646 20.9047C2.8731 20.9029 2.6721 20.8609 2.48497 20.7812Z" fill="#004985"/>
<path d="M5.11879 24.3797C4.95896 24.3186 4.81343 24.2252 4.69132 24.1053C4.56921 23.9854 4.47312 23.8416 4.40908 23.6829C4.34503 23.5243 4.31439 23.3541 4.31907 23.183C4.32375 23.0119 4.36366 22.8437 4.4363 22.6887C4.4975 22.5267 4.59097 22.3788 4.71104 22.2539C4.83111 22.1291 4.97528 22.0299 5.13481 21.9624C5.29435 21.8949 5.46592 21.8605 5.63914 21.8613C5.81236 21.862 5.98362 21.898 6.14255 21.9669C6.30557 22.0332 6.4536 22.1316 6.57782 22.2563C6.70204 22.3809 6.79992 22.5293 6.86563 22.6926C6.93134 22.8559 6.96355 23.0307 6.96034 23.2066C6.95712 23.3826 6.91855 23.5561 6.84692 23.7169C6.77953 23.8759 6.68065 24.0196 6.55623 24.1394C6.43181 24.2592 6.28442 24.3526 6.12295 24.4139C5.96149 24.4752 5.78928 24.5032 5.6167 24.4962C5.44413 24.4892 5.27476 24.4473 5.11879 24.3731V24.3797Z" fill="#004985"/>
<path d="M9.04522 26.9194C8.81606 26.8217 8.62109 26.6581 8.48501 26.4494C8.34893 26.2408 8.27787 25.9964 8.28085 25.7473C8.28383 25.4982 8.36071 25.2556 8.50175 25.0503C8.64278 24.8449 8.84162 24.6861 9.07304 24.5939C9.30447 24.5017 9.55806 24.4803 9.80166 24.5324C10.0453 24.5845 10.2679 24.7077 10.4414 24.8865C10.6148 25.0653 10.7313 25.2916 10.776 25.5367C10.8207 25.7818 10.7916 26.0346 10.6924 26.2631C10.5583 26.5663 10.3108 26.8049 10.0028 26.9276C9.69483 27.0503 9.35104 27.0473 9.04522 26.9194Z" fill="#004985"/>
<path d="M18.5346 26.8734C18.3428 26.7932 18.1791 26.6578 18.0644 26.4844C17.9496 26.311 17.8889 26.1075 17.8899 25.8996C17.8909 25.6916 17.9537 25.4887 18.0702 25.3165C18.1867 25.1443 18.3517 25.0105 18.5443 24.9322C18.7369 24.8538 18.9485 24.8344 19.1521 24.8765C19.3557 24.9185 19.5423 25.02 19.6882 25.1682C19.834 25.3164 19.9326 25.5045 19.9714 25.7088C20.0102 25.9131 19.9875 26.1243 19.9062 26.3156C19.8539 26.4435 19.7765 26.5595 19.6787 26.6571C19.5809 26.7546 19.4646 26.8316 19.3367 26.8836C19.2087 26.9355 19.0716 26.9614 18.9335 26.9597C18.7954 26.9579 18.6591 26.9286 18.5324 26.8734H18.5346Z" fill="#004985"/>
<path d="M13.7813 27.8381C13.5731 27.7496 13.3958 27.6014 13.2718 27.4121C13.1478 27.2229 13.0827 27.0011 13.0848 26.7749C13.0868 26.5486 13.1559 26.3281 13.2833 26.1411C13.4107 25.9541 13.5906 25.8091 13.8004 25.7244C14.0102 25.6397 14.2404 25.619 14.4619 25.6652C14.6834 25.7113 14.8863 25.822 15.0448 25.9834C15.2034 26.1448 15.3106 26.3496 15.3528 26.5718C15.395 26.7941 15.3703 27.0239 15.2819 27.2322C15.2246 27.3717 15.14 27.4983 15.0331 27.6046C14.9262 27.7109 14.799 27.7947 14.6592 27.8512C14.5194 27.9077 14.3697 27.9356 14.2189 27.9333C14.0682 27.9311 13.9194 27.8987 13.7813 27.8381Z" fill="#004985"/>
<path d="M22.6298 24.0012C22.476 23.9368 22.3449 23.8281 22.2531 23.689C22.1613 23.5498 22.1129 23.3864 22.1143 23.2197C22.1156 23.053 22.1665 22.8904 22.2606 22.7527C22.3546 22.615 22.4875 22.5084 22.6423 22.4465C22.7971 22.3846 22.9668 22.3701 23.1299 22.405C23.2929 22.4399 23.4419 22.5225 23.5579 22.6423C23.6738 22.7621 23.7515 22.9137 23.781 23.0778C23.8105 23.2419 23.7905 23.411 23.7236 23.5637C23.6811 23.6648 23.619 23.7564 23.5409 23.8333C23.4627 23.9101 23.37 23.9707 23.2682 24.0114C23.1665 24.0521 23.0576 24.0722 22.948 24.0704C22.8384 24.0687 22.7302 24.0452 22.6298 24.0012Z" fill="#004985"/>
<path d="M13.941 4.46688C13.6578 4.35843 13.4 4.19279 13.1837 3.9803C12.9674 3.76781 12.7971 3.51302 12.6836 3.23183C12.5701 2.95064 12.5158 2.64907 12.524 2.34595C12.5322 2.04282 12.6028 1.74464 12.7313 1.47C13.2498 0.247188 14.5338 -0.328125 15.7501 0.190313C16.038 0.30761 16.2996 0.481358 16.5193 0.701317C16.7391 0.921276 16.9126 1.183 17.0296 1.47105C17.1466 1.75911 17.2048 2.06767 17.2007 2.37856C17.1966 2.68945 17.1303 2.99638 17.0057 3.28125C16.4873 4.50406 15.1638 4.98313 13.9432 4.46469L13.941 4.46688Z" fill="#004985"/>
<path d="M8.73481 5.08156C8.45467 4.97402 8.19964 4.80998 7.98561 4.59966C7.77157 4.38934 7.60309 4.13723 7.49066 3.85901C7.37822 3.58079 7.32423 3.28242 7.33204 2.98244C7.33985 2.68246 7.4093 2.3873 7.53606 2.11531C8.05012 0.907813 9.32106 0.336875 10.5307 0.850938C10.8157 0.967398 11.0745 1.13981 11.2917 1.35799C11.509 1.57616 11.6803 1.83567 11.7955 2.12117C11.9107 2.40668 11.9675 2.71238 11.9626 3.02022C11.9576 3.32806 11.891 3.63178 11.7667 3.91344C11.2548 5.12094 9.9445 5.59562 8.73481 5.08156Z" fill="#004985"/>
<path d="M4.65285 7.98C4.39124 7.88037 4.153 7.72781 3.95306 7.53188C3.75311 7.33595 3.59575 7.10086 3.49083 6.84132C3.3859 6.58179 3.33567 6.30339 3.34328 6.02355C3.35089 5.74371 3.41617 5.46845 3.53504 5.215C4.0141 4.08625 5.19973 3.55469 6.32848 4.03375C6.59419 4.14258 6.83542 4.30352 7.03794 4.50708C7.24045 4.71064 7.40014 4.95271 7.50759 5.21898C7.61504 5.48526 7.66807 5.77036 7.66355 6.05746C7.65903 6.34457 7.59706 6.62786 7.48129 6.89062C7.00223 8.01719 5.77941 8.45906 4.65285 7.98438V7.98Z" fill="#004985"/>
<path d="M24.9791 20.1622C24.8588 20.1126 24.7559 20.0283 24.6836 19.92C24.6112 19.8117 24.5727 19.6844 24.573 19.5542C24.5733 19.424 24.6122 19.2968 24.685 19.1888C24.7577 19.0808 24.8609 18.9969 24.9815 18.9478C25.1021 18.8986 25.2345 18.8864 25.362 18.9128C25.4895 18.9391 25.6063 19.0028 25.6975 19.0957C25.7887 19.1886 25.8503 19.3066 25.8743 19.4345C25.8982 19.5625 25.8836 19.6947 25.8323 19.8144C25.8 19.8939 25.7521 19.9663 25.6915 20.027C25.6308 20.0878 25.5586 20.1358 25.4791 20.1682C25.3995 20.2007 25.3143 20.2168 25.2285 20.2158C25.1426 20.2147 25.0578 20.1965 24.9791 20.1622Z" fill="#004985"/>
<path d="M26.0553 15.9381C25.9347 15.8885 25.8316 15.804 25.7593 15.6955C25.6869 15.587 25.6485 15.4594 25.6489 15.329C25.6494 15.1986 25.6887 15.0713 25.7618 14.9633C25.835 14.8553 25.9386 14.7716 26.0596 14.7227C26.1805 14.6739 26.3132 14.6623 26.4408 14.6892C26.5684 14.7162 26.6851 14.7806 26.776 14.8741C26.8668 14.9677 26.9277 15.0862 26.9509 15.2146C26.9741 15.3429 26.9586 15.4752 26.9062 15.5947C26.8738 15.6743 26.8257 15.7467 26.7647 15.8073C26.7038 15.868 26.6312 15.9158 26.5514 15.9478C26.4716 15.9799 26.3862 15.9955 26.3002 15.9939C26.2142 15.9922 26.1294 15.9732 26.0509 15.9381H26.0553Z" fill="#004985"/>
<path d="M24.0101 8.03906C23.89 7.98876 23.7876 7.90389 23.7159 7.79524C23.6442 7.68659 23.6065 7.55907 23.6074 7.42889C23.6084 7.29872 23.6481 7.17178 23.7214 7.0642C23.7947 6.95663 23.8983 6.87329 24.0191 6.82479C24.1399 6.77628 24.2724 6.7648 24.3998 6.7918C24.5271 6.8188 24.6436 6.88307 24.7343 6.97642C24.825 7.06978 24.8859 7.18801 24.9093 7.31607C24.9326 7.44414 24.9174 7.57626 24.8654 7.69562C24.833 7.77528 24.7849 7.84759 24.7239 7.90826C24.663 7.96893 24.5904 8.01671 24.5106 8.04875C24.4308 8.0808 24.3454 8.09646 24.2594 8.09479C24.1734 8.09313 24.0886 8.07417 24.0101 8.03906Z" fill="#004985"/>
<path d="M25.6331 11.8278C25.5128 11.778 25.41 11.6935 25.3378 11.5851C25.2656 11.4767 25.2273 11.3492 25.2278 11.219C25.2283 11.0887 25.2675 10.9616 25.3405 10.8537C25.4135 10.7458 25.5169 10.6621 25.6376 10.6132C25.7583 10.5643 25.8909 10.5524 26.0184 10.5791C26.1459 10.6057 26.2625 10.6697 26.3535 10.7629C26.4445 10.8561 26.5058 10.9743 26.5294 11.1023C26.553 11.2304 26.538 11.3627 26.4862 11.4822C26.4543 11.562 26.4065 11.6345 26.3459 11.6953C26.2852 11.7562 26.2129 11.8042 26.1332 11.8365C26.0536 11.8688 25.9682 11.8846 25.8823 11.8831C25.7964 11.8816 25.7116 11.8628 25.6331 11.8278Z" fill="#004985"/>
</g>
<defs>
<clipPath id="clip0">
<rect width="139.744" height="28" fill="white"/>
</clipPath>
</defs>
</svg>
